<svg width="688" height="720" viewBox="0 0 688 720" fill="none" xmlns="http://www.w3.org/2000/svg">
  <rect x="1" y="1" width="686" height="718" rx="30" fill="#171819"/>
  <rect x="1" y="1" width="686" height="718" rx="30" stroke="white" stroke-opacity=".08" stroke-width="2"/>
  <rect width="688" height="720" rx="31" fill="url(#fade)"/>
  <path d="M0 0H688" stroke="white" stroke-opacity=".08"/>
  <path d="M205 74C246 56 302 63 341 97C374 126 395 157 440 159" stroke="#7f8189" stroke-opacity=".32" stroke-width="2.2" stroke-dasharray="6 7"/>
  <path d="M284 226C326 259 345 285 344 311" stroke="#7f8189" stroke-opacity=".32" stroke-width="2.2" stroke-dasharray="6 7"/>
  <path d="M482 232C425 246 404 285 391 316" stroke="#7f8189" stroke-opacity=".32" stroke-width="2.2" stroke-dasharray="6 7"/>
  <path d="M344 388V586" stroke="#7f8189" stroke-opacity=".32" stroke-width="2.2" stroke-dasharray="6 7"/>
  <g filter="url(#soft)"><rect x="48" y="31" width="240" height="84" rx="21" fill="#202122"/><rect x="48" y="31" width="240" height="84" rx="21" stroke="white" stroke-opacity=".1" stroke-width="2"/><rect x="70" y="52" width="46" height="46" rx="13" fill="#19472E"/><path d="M85 66H101M85 74H101M85 82H96" stroke="#5CE08D" stroke-width="3" stroke-linecap="round"/><text x="130" y="72" fill="#E4E5E7" font-family="Inter,Arial,sans-serif" font-size="22" font-weight="700">Plan</text><text x="130" y="96" fill="#9A9CA4" font-family="Inter,Arial,sans-serif" font-size="17">5 steps · M365 ...</text></g>
  <g filter="url(#glow)"><rect x="47" y="151" width="247" height="89" rx="23" fill="#262839"/><rect x="47" y="151" width="247" height="89" rx="23" stroke="#5861B7" stroke-width="2"/><rect x="68" y="173" width="46" height="46" rx="13" fill="#303668"/><rect x="83" y="188" width="17" height="14" rx="2" stroke="#8791FF" stroke-width="2"/><path d="M87 193H97M87 197H94" stroke="#8791FF" stroke-width="2" stroke-linecap="round"/><text x="130" y="194" fill="#E4E5E7" font-family="Inter,Arial,sans-serif" font-size="22" font-weight="700">SharePoint</text><text x="130" y="218" fill="#9A9CA4" font-family="Inter,Arial,sans-serif" font-size="17">Inactive sites · 9...</text></g>
  <g filter="url(#soft)"><rect x="359" y="153" width="242" height="84" rx="20" fill="#202122"/><rect x="359" y="153" width="242" height="84" rx="20" stroke="white" stroke-opacity=".1" stroke-width="2"/><rect x="381" y="173" width="46" height="46" rx="13" fill="#29305A"/><rect x="396" y="188" width="17" height="14" rx="2" stroke="#8791FF" stroke-width="2"/><text x="441" y="195" fill="#E4E5E7" font-family="Inter,Arial,sans-serif" font-size="22" font-weight="700">Licenses</text><text x="441" y="218" fill="#9A9CA4" font-family="Inter,Arial,sans-serif" font-size="17">Underutilized · ...</text></g>
  <g filter="url(#soft)"><rect x="220" y="309" width="242" height="84" rx="20" fill="#202122"/><rect x="220" y="309" width="242" height="84" rx="20" stroke="white" stroke-opacity=".1" stroke-width="2"/><rect x="242" y="329" width="46" height="46" rx="13" fill="#3A3024"/><text x="258" y="360" fill="#E8B87C" font-family="Inter,Arial,sans-serif" font-size="24" font-weight="700">ↄ</text><text x="302" y="351" fill="#E4E5E7" font-family="Inter,Arial,sans-serif" font-size="21" font-weight="700">Correlate</text><text x="302" y="374" fill="#9A9CA4" font-family="Inter,Arial,sans-serif" font-size="16">Teams · OneDriv...</text></g>
  <g filter="url(#soft)"><rect x="220" y="466" width="242" height="84" rx="20" fill="#202122"/><rect x="220" y="466" width="242" height="84" rx="20" stroke="white" stroke-opacity=".1" stroke-width="2"/><rect x="242" y="486" width="46" height="46" rx="13" fill="#3A3024"/><path d="M258 516H276M262 516V504M267 516V497M272 516V508" stroke="#E8B87C" stroke-width="2.5" stroke-linecap="round"/><text x="302" y="507" fill="#E4E5E7" font-family="Inter,Arial,sans-serif" font-size="21" font-weight="700">Action plan</text><text x="302" y="530" fill="#9A9CA4" font-family="Inter,Arial,sans-serif" font-size="16">Cost · Security · ...</text></g>
  <g filter="url(#approval)"><rect x="47" y="587" width="707" height="97" rx="22" fill="#1E2030"/><rect x="47" y="587" width="707" height="97" rx="22" stroke="#5861B7" stroke-width="1.6"/><rect x="72" y="615" width="43" height="43" rx="22" fill="#43498A"/><path d="M88 628V645M99 628V645" stroke="#B1B7FF" stroke-width="3" stroke-linecap="round"/><text x="131" y="632" fill="#E4E5E7" font-family="Inter,Arial,sans-serif" font-size="20" font-weight="700">Awaiting approval</text><text x="131" y="657" fill="#A3A5AD" font-family="Inter,Arial,sans-serif" font-size="17">Archive 14 sites · reclaim 38 licenses · save €42k/yr</text></g>
  <defs><radialGradient id="fade" cx="0" cy="0" r="1" gradientUnits="userSpaceOnUse" gradientTransform="translate(345 70) rotate(90) scale(650 520)"><stop stop-color="white" stop-opacity=".035"/><stop offset=".55" stop-color="#171819" stop-opacity="0"/><stop offset="1" stop-color="#0F1011" stop-opacity=".45"/></radialGradient><filter id="soft" x="20" y="3" width="620" height="575" filterUnits="userSpaceOnUse" color-interpolation-filters="sRGB"><feDropShadow dx="0" dy="12" stdDeviation="18" flood-color="#000" flood-opacity=".18"/></filter><filter id="glow" x="29" y="133" width="283" height="125" filterUnits="userSpaceOnUse" color-interpolation-filters="sRGB"><feDropShadow dx="0" dy="0" stdDeviation="8" flood-color="#5861B7" flood-opacity=".24"/></filter><filter id="approval" x="20" y="560" width="761" height="151" filterUnits="userSpaceOnUse" color-interpolation-filters="sRGB"><feDropShadow dx="0" dy="16" stdDeviation="22" flood-color="#000" flood-opacity=".22"/></filter></defs>
</svg>
