<svg width="598" height="720" viewBox="0 0 598 720" fill="none" xmlns="http://www.w3.org/2000/svg">
  <rect width="598" height="720" fill="#151617"/><rect width="598" height="720" fill="url(#mobileFade)"/><path d="M0 0H598" stroke="white" stroke-opacity=".08"/>
  <path d="M168 75C214 55 272 65 310 98C342 127 361 155 405 159" stroke="#7f8189" stroke-opacity=".34" stroke-width="2.2" stroke-dasharray="6 7"/><path d="M245 225C287 258 307 285 307 311" stroke="#7f8189" stroke-opacity=".34" stroke-width="2.2" stroke-dasharray="6 7"/><path d="M448 232C394 246 372 284 359 316" stroke="#7f8189" stroke-opacity=".34" stroke-width="2.2" stroke-dasharray="6 7"/><path d="M307 388V592" stroke="#7f8189" stroke-opacity=".34" stroke-width="2.2" stroke-dasharray="6 7"/>
  <g filter="url(#msoft)"><rect x="13" y="32" width="242" height="84" rx="21" fill="#202122"/><rect x="13" y="32" width="242" height="84" rx="21" stroke="white" stroke-opacity=".1" stroke-width="2"/><rect x="67" y="52" width="46" height="46" rx="13" fill="#19472E"/><path d="M82 66H98M82 74H98M82 82H93" stroke="#5CE08D" stroke-width="3" stroke-linecap="round"/><text x="128" y="73" fill="#E4E5E7" font-family="Inter,Arial,sans-serif" font-size="22" font-weight="700">Plan</text><text x="128" y="96" fill="#9A9CA4" font-family="Inter,Arial,sans-serif" font-size="17">5 steps · M365 ...</text></g>
  <g filter="url(#mglow)"><rect x="12" y="152" width="247" height="89" rx="23" fill="#262839"/><rect x="12" y="152" width="247" height="89" rx="23" stroke="#5861B7" stroke-width="2"/><rect x="34" y="174" width="46" height="46" rx="13" fill="#303668"/><rect x="49" y="189" width="17" height="14" rx="2" stroke="#8791FF" stroke-width="2"/><path d="M53 194H63M53 198H60" stroke="#8791FF" stroke-width="2" stroke-linecap="round"/><text x="96" y="195" fill="#E4E5E7" font-family="Inter,Arial,sans-serif" font-size="22" font-weight="700">SharePoint</text><text x="96" y="218" fill="#9A9CA4" font-family="Inter,Arial,sans-serif" font-size="17">Inactive sites · 9...</text></g>
  <g filter="url(#msoft)"><rect x="325" y="153" width="242" height="84" rx="20" fill="#202122"/><rect x="325" y="153" width="242" height="84" rx="20" stroke="white" stroke-opacity=".1" stroke-width="2"/><rect x="347" y="173" width="46" height="46" rx="13" fill="#29305A"/><rect x="362" y="188" width="17" height="14" rx="2" stroke="#8791FF" stroke-width="2"/><text x="407" y="195" fill="#E4E5E7" font-family="Inter,Arial,sans-serif" font-size="22" font-weight="700">Licenses</text><text x="407" y="218" fill="#9A9CA4" font-family="Inter,Arial,sans-serif" font-size="17">Underutilized · ...</text></g>
  <g filter="url(#msoft)"><rect x="187" y="309" width="242" height="84" rx="20" fill="#202122"/><rect x="187" y="309" width="242" height="84" rx="20" stroke="white" stroke-opacity=".1" stroke-width="2"/><rect x="209" y="329" width="46" height="46" rx="13" fill="#3A3024"/><text x="225" y="360" fill="#E8B87C" font-family="Inter,Arial,sans-serif" font-size="24" font-weight="700">ↄ</text><text x="269" y="351" fill="#E4E5E7" font-family="Inter,Arial,sans-serif" font-size="21" font-weight="700">Correlate</text><text x="269" y="374" fill="#9A9CA4" font-family="Inter,Arial,sans-serif" font-size="16">Teams · OneDriv...</text></g>
  <g filter="url(#msoft)"><rect x="187" y="466" width="242" height="84" rx="20" fill="#202122"/><rect x="187" y="466" width="242" height="84" rx="20" stroke="white" stroke-opacity=".1" stroke-width="2"/><rect x="209" y="486" width="46" height="46" rx="13" fill="#3A3024"/><path d="M225 516H243M229 516V504M234 516V497M239 516V508" stroke="#E8B87C" stroke-width="2.5" stroke-linecap="round"/><text x="269" y="507" fill="#E4E5E7" font-family="Inter,Arial,sans-serif" font-size="21" font-weight="700">Action plan</text><text x="269" y="530" fill="#9A9CA4" font-family="Inter,Arial,sans-serif" font-size="16">Cost · Security · ...</text></g>
  <g filter="url(#mapproval)"><rect x="13" y="587" width="688" height="97" rx="22" fill="#1E2030"/><rect x="13" y="587" width="688" height="97" rx="22" stroke="#5861B7" stroke-width="1.6"/><rect x="38" y="615" width="43" height="43" rx="22" fill="#43498A"/><path d="M54 628V645M65 628V645" stroke="#B1B7FF" stroke-width="3" stroke-linecap="round"/><text x="97" y="632" fill="#E4E5E7" font-family="Inter,Arial,sans-serif" font-size="20" font-weight="700">Awaiting approval</text><text x="97" y="657" fill="#A3A5AD" font-family="Inter,Arial,sans-serif" font-size="17">Archive 14 sites · reclaim 38 licenses · save €42k/yr</text></g>
  <defs><radialGradient id="mobileFade" cx="0" cy="0" r="1" gradientUnits="userSpaceOnUse" gradientTransform="translate(303 114) rotate(90) scale(610 430)"><stop stop-color="white" stop-opacity=".035"/><stop offset=".63" stop-color="#151617" stop-opacity="0"/><stop offset="1" stop-color="#0D0E0F" stop-opacity=".55"/></radialGradient><filter id="msoft" x="-10" y="8" width="602" height="570" filterUnits="userSpaceOnUse" color-interpolation-filters="sRGB"><feDropShadow dx="0" dy="12" stdDeviation="18" flood-color="#000" flood-opacity=".18"/></filter><filter id="mglow" x="-6" y="134" width="283" height="125" filterUnits="userSpaceOnUse" color-interpolation-filters="sRGB"><feDropShadow dx="0" dy="0" stdDeviation="8" flood-color="#5861B7" flood-opacity=".24"/></filter><filter id="mapproval" x="-18" y="560" width="750" height="151" filterUnits="userSpaceOnUse" color-interpolation-filters="sRGB"><feDropShadow dx="0" dy="16" stdDeviation="22" flood-color="#000" flood-opacity=".22"/></filter></defs>
</svg>
